<?xml version="1.0" standalone="no"?>
<!DOCTYPE svg PUBLIC "-//W3C//DTD SVG 20010904//EN"
 "http://www.w3.org/TR/2001/REC-SVG-20010904/DTD/svg10.dtd">
<svg version="1.0" xmlns="http://www.w3.org/2000/svg"
 width="420.000000pt" height="420.000000pt" viewBox="0 0 420.000000 420.000000"
 preserveAspectRatio="xMidYMid meet">
<metadata>
Created by potrace 1.14, written by Peter Selinger 2001-2017
</metadata>
<g transform="translate(0.000000,420.000000) scale(0.100000,-0.100000)"
fill="#000000" stroke="none">
<path d="M1921 3429 c-107 -14 -235 -47 -308 -81 -215 -99 -377 -363 -398
-648 -3 -41 -7 -185 -10 -320 -2 -135 -8 -257 -12 -272 -8 -27 -9 -27 -37 28
-34 64 -72 96 -87 73 -18 -29 -9 -57 24 -78 43 -26 55 -53 67 -154 6 -45 15
-104 20 -132 5 -27 9 -67 9 -87 1 -34 -2 -38 -23 -38 -16 0 -31 11 -45 33 -11
17 -21 27 -21 22 0 -12 29 -57 44 -67 6 -4 20 -8 32 -8 18 0 23 -11 38 -85 41
-208 135 -387 308 -586 261 -300 608 -385 908 -222 268 145 490 407 581 686
18 56 26 68 41 64 20 -6 63 24 80 56 9 17 3 15 -25 -10 -53 -47 -68 -37 -52
35 7 31 20 71 29 88 9 17 24 64 34 105 22 87 37 113 71 129 19 8 26 8 32 -2 5
-8 9 13 9 50 l0 63 -31 -16 c-16 -9 -45 -37 -62 -62 l-32 -45 -3 59 c-2 32 1
87 7 123 39 246 63 489 57 582 -21 306 -166 505 -447 617 -101 40 -251 80
-363 97 -98 15 -332 17 -435 3z m22 -418 c239 -46 253 -46 652 -41 168 2 214
-12 302 -93 80 -74 115 -180 101 -310 -15 -146 -42 -306 -50 -301 -18 11 -288
35 -399 35 -154 1 -207 -14 -237 -67 -6 -11 -31 -16 -97 -18 -49 -2 -81 1 -70
5 13 5 0 8 -40 9 -33 2 -63 2 -67 1 -4 0 -14 14 -21 32 -8 17 -21 38 -31 46
-22 18 -145 51 -152 40 -3 -5 -13 -9 -22 -8 -14 0 -13 2 3 8 14 6 3 10 -40 15
-149 16 -295 24 -351 19 l-61 -5 -6 68 c-14 146 -9 200 30 317 33 99 42 116
92 169 102 109 211 128 464 79z m-306 -647 c-3 -3 -12 -4 -19 -1 -8 3 -5 6 6
6 11 1 17 -2 13 -5z m116 -11 c-7 -2 -19 -2 -25 0 -7 3 -2 5 12 5 14 0 19 -2
13 -5z m37 -22 c49 -9 66 -13 120 -26 8 -2 16 -4 18 -5 1 -2 7 -3 13 -4 7 0
21 -14 33 -29 17 -24 21 -42 20 -105 -2 -97 -29 -197 -60 -221 -13 -10 -20
-22 -16 -26 4 -4 -4 -4 -17 0 -13 4 -21 3 -18 -1 3 -5 -46 -9 -109 -10 -69 -1
-114 3 -114 9 0 6 -20 7 -50 4 -29 -4 -50 -2 -50 3 0 6 -15 10 -32 10 -18 0
-60 7 -93 14 -33 8 -63 12 -67 10 -5 -3 -8 0 -8 6 0 6 -4 9 -9 5 -21 -12 -33
68 -29 184 8 198 16 204 248 197 91 -3 190 -10 220 -15z m87 3 c-3 -3 -12 -4
-19 -1 -8 3 -5 6 6 6 11 1 17 -2 13 -5z m586 -51 c-7 -2 -21 -2 -30 0 -10 3
-4 5 12 5 17 0 24 -2 18 -5z m290 -24 c204 -20 239 -41 243 -142 2 -59 -19
-218 -32 -239 -5 -7 -9 -17 -9 -22 0 -13 -26 -15 -208 -18 -88 -2 -161 1 -164
6 -3 4 -25 6 -49 2 -29 -4 -44 -2 -44 5 0 7 -11 9 -30 5 -22 -4 -29 -2 -24 6
5 7 0 9 -14 6 -12 -4 -20 -2 -16 3 3 5 -1 9 -9 9 -19 0 -59 41 -65 66 -2 11
-4 66 -4 124 0 125 16 176 60 186 15 3 32 7 37 9 23 8 230 4 328 -6z m-510
-76 c47 -6 47 -6 47 -44 0 -21 -4 -40 -9 -43 -4 -3 -7 -16 -5 -28 16 -111 22
-137 39 -165 28 -48 75 -66 220 -83 108 -14 371 -18 403 -7 21 8 22 6 22 -36
0 -105 -86 -338 -130 -352 -12 -4 -51 -4 -86 0 -58 6 -64 9 -64 29 0 72 -169
129 -363 123 -69 -2 -78 2 -52 23 24 20 37 82 24 119 -14 40 -29 40 -29 0 0
-43 -16 -69 -55 -85 -47 -19 -102 -17 -153 6 -44 20 -62 48 -62 98 0 25 -1 25
-15 6 -21 -27 -18 -83 5 -122 l20 -32 -23 5 c-39 8 -89 14 -178 21 -73 6 -98
3 -159 -15 -62 -19 -74 -26 -83 -52 -11 -28 -14 -29 -75 -29 -73 0 -115 18
-136 59 -20 37 -56 218 -55 273 0 41 15 135 18 112 4 -36 180 -70 416 -81 202
-9 249 11 280 116 13 41 22 58 32 54 7 -3 14 1 14 8 6 71 5 79 -7 79 -9 0 -14
12 -14 31 l0 32 83 -7 c45 -4 103 -10 130 -13z m-630 -707 c3 -7 18 -17 34
-20 15 -4 69 -48 123 -100 52 -50 120 -106 151 -124 65 -37 71 -38 62 -15 -6
14 -1 15 38 9 24 -3 77 -9 117 -13 77 -6 89 -15 45 -31 -45 -17 -2 -13 58 4
72 21 145 63 232 133 55 44 82 59 115 64 23 3 42 4 42 3 0 -15 -46 -119 -70
-156 -44 -69 -165 -155 -255 -181 -25 -8 -17 4 52 70 78 76 114 121 95 121 -5
0 -16 -7 -23 -16 -18 -22 -105 -77 -165 -104 -68 -31 -168 -37 -236 -15 -59
19 -133 65 -202 126 -61 54 -58 41 7 -28 65 -69 118 -103 182 -118 l49 -11
-89 -2 c-96 -1 -112 5 -194 63 -51 37 -98 91 -126 145 -14 28 -75 195 -75 207
0 10 29 1 33 -11z m357 -41 c68 -9 126 -23 100 -25 -23 -1 -23 -2 -5 -10 17
-7 15 -9 -12 -9 -37 -1 -178 25 -196 36 -15 9 29 22 58 16 11 -2 36 -6 55 -8z
m310 -26 c0 -5 -4 -8 -9 -4 -5 3 -12 1 -15 -4 -4 -5 2 -12 11 -14 15 -5 -22
-4 -144 2 -29 2 -10 20 25 24 79 8 132 7 132 -4z m-127 -346 c-13 -2 -33 -2
-45 0 -13 2 -3 4 22 4 25 0 35 -2 23 -4z"/>
<path d="M1611 2594 c-55 -20 -87 -39 -128 -78 -54 -49 -35 -63 37 -26 21 11
71 25 110 32 61 11 80 10 138 -5 104 -26 122 -27 159 -12 27 11 34 20 31 37
-2 18 -15 27 -58 41 -78 27 -232 32 -289 11z"/>
<path d="M2522 2555 c-46 -7 -88 -17 -94 -23 -17 -17 -4 -46 27 -61 25 -12 40
-12 105 0 134 24 224 7 299 -58 30 -25 45 -33 53 -25 24 24 -68 125 -144 156
-51 21 -155 26 -246 11z"/>
<path d="M1575 2274 c-22 -9 -63 -34 -91 -55 -44 -32 -51 -42 -46 -64 l5 -27
41 40 c44 42 94 72 122 72 15 0 15 -3 -4 -23 -26 -27 -37 -74 -28 -119 6 -33
7 -33 93 -50 84 -17 87 -17 118 2 40 24 45 25 45 3 1 -30 30 16 30 46 0 14 4
32 8 39 10 15 25 -1 61 -60 13 -21 24 -38 26 -38 8 0 -15 73 -30 96 -33 51
-89 106 -129 126 -55 29 -166 34 -221 12z m116 -70 c9 -11 10 -20 2 -32 -13
-22 -43 -22 -56 -1 -24 38 25 68 54 33z"/>
<path d="M1361 2119 c-16 -25 -19 -69 -5 -69 4 0 54 77 54 84 0 2 -7 6 -15 10
-10 4 -22 -5 -34 -25z"/>
<path d="M2535 2206 c-21 -8 -58 -28 -81 -45 -28 -19 -50 -28 -63 -24 -36 9
-51 -14 -51 -79 l0 -59 43 52 c54 67 71 74 62 26 -5 -24 -1 -46 10 -70 l17
-35 83 2 c55 2 92 9 108 19 13 8 34 17 48 19 31 4 37 49 14 104 -8 20 -14 39
-12 40 8 9 85 -51 111 -87 36 -48 48 -50 41 -6 -18 102 -213 186 -330 143z
m35 -79 c0 -24 -18 -39 -41 -35 -29 4 -38 37 -14 54 20 15 55 2 55 -19z m-170
-7 c0 -13 -11 -13 -30 0 -12 8 -11 10 8 10 12 0 22 -4 22 -10z"/>
</g>
</svg>
